<svg width="127" height="32" viewBox="0 0 127 32" fill="none" xmlns="http://www.w3.org/2000/svg">
<path d="M46.6833 20.1682H44.9825V21.8677H46.6833V20.1682Z" fill="black"/>
<path d="M45.9075 15.504L48.9361 11.5136L50.027 10.0507H41.647L40.3569 11.7564L46.6218 11.7466L44.6805 14.2997H44.6671L40.0337 20.4049L38.9416 21.8677H47.3228L48.6129 20.1633L42.3468 20.173L45.8953 15.504H45.9075Z" fill="black"/>
<path d="M123.857 6.33832H122.156V21.9248H123.857V6.33832Z" fill="black"/>
<path d="M126.573 10.0337L125.333 11.7333H120.291L121.618 10.0337H126.573Z" fill="black"/>
<path d="M78.2391 10.8082C77.5965 10.1587 76.7315 9.82973 75.6698 9.82973C74.9506 9.82973 74.2593 10.0155 73.6142 10.3833C72.9704 10.7499 72.4614 11.2622 72.1018 11.9057L72.086 11.9324H71.9718L71.9584 11.8972C71.4506 10.5241 70.4289 9.82852 68.9201 9.82852C68.2167 9.82852 67.5558 10.007 66.9569 10.3578C66.3568 10.7099 65.8624 11.1846 65.4882 11.7697L65.4724 11.794H65.3448V9.83581L63.5979 11.1154V21.8143H65.3448V14.5085C65.3448 13.6138 65.6692 12.8429 66.3106 12.2189C66.9509 11.5949 67.6676 11.278 68.4403 11.278C69.0635 11.278 69.5725 11.4953 69.9552 11.9239C70.3354 12.3512 70.5286 12.9363 70.5286 13.6623V21.8155H72.2755V14.5085C72.2755 13.5992 72.5731 12.8259 73.1599 12.2092C73.7467 11.5912 74.4452 11.278 75.2336 11.278C75.8556 11.278 76.3877 11.4953 76.8153 11.9227C77.243 12.35 77.4604 12.9363 77.4604 13.6635V21.8167H79.2074V13.5725C79.2074 12.3876 78.8806 11.4577 78.2391 10.8082Z" fill="black"/>
<path d="M103.773 10.7985C103.085 10.1563 102.113 9.82971 100.882 9.82971C99.321 9.82971 98.0733 10.4379 97.1731 11.6374L97.1573 11.6592H97.0322V9.83821L95.2853 11.1178V21.8167H97.0322V14.6007C97.0322 13.6307 97.3456 12.8259 97.9628 12.2091C98.5799 11.5924 99.3781 11.2792 100.334 11.2792C101.182 11.2792 101.856 11.4953 102.336 11.9214C102.818 12.35 103.063 12.9594 103.063 13.7327V21.8167H104.81V13.5725C104.81 12.373 104.461 11.4407 103.773 10.7985Z" fill="black"/>
<path d="M55.286 10.0507C52.0205 10.0507 49.3734 12.696 49.3734 15.9592C49.3734 19.2224 52.0205 21.8677 55.286 21.8677C58.5515 21.8677 61.1986 19.2224 61.1986 15.9592C61.1986 12.696 58.5515 10.0507 55.286 10.0507ZM55.286 20.1681C52.9632 20.1681 51.0741 18.2803 51.0741 15.9592C51.0741 13.638 52.9632 11.7503 55.286 11.7503C57.6087 11.7503 59.4978 13.638 59.4978 15.9592C59.4978 18.2803 57.6087 20.1681 55.286 20.1681Z" fill="black"/>
<path d="M59.4983 11.1226V21.8677H61.1991V9.83823L59.4983 11.1226Z" fill="black"/>
<path d="M86.9792 10.0507C83.7137 10.0507 81.0666 12.696 81.0666 15.9592C81.0666 19.2224 83.7137 21.8677 86.9792 21.8677C90.2447 21.8677 92.8918 19.2224 92.8918 15.9592C92.8918 12.696 90.2447 10.0507 86.9792 10.0507ZM86.9792 20.1681C84.6564 20.1681 82.7674 18.2804 82.7674 15.9592C82.7674 13.638 84.6564 11.7503 86.9792 11.7503C89.302 11.7503 91.1911 13.638 91.1911 15.9592C91.1911 18.2804 89.302 20.1681 86.9792 20.1681Z" fill="black"/>
<path d="M91.1915 11.1227V21.8677H92.8923V9.83826L91.1915 11.1227Z" fill="black"/>
<path d="M112.581 10.0507C109.315 10.0507 106.668 12.696 106.668 15.9592C106.668 19.2224 109.315 21.8677 112.581 21.8677C115.846 21.8677 118.493 19.2224 118.493 15.9592C118.493 12.696 115.846 10.0507 112.581 10.0507ZM112.581 20.1681C110.258 20.1681 108.369 18.2804 108.369 15.9592C108.369 13.638 110.258 11.7503 112.581 11.7503C114.904 11.7503 116.793 13.638 116.793 15.9592C116.793 18.2804 114.904 20.1681 112.581 20.1681Z" fill="black"/>
<path d="M116.793 11.1227V21.8677H118.494V9.83826L116.793 11.1227Z" fill="black"/>
<path d="M31.3084 15.8366L32.0664 14.517L30.3523 8.22967L30.2587 7.8934L25.448 3.12361L25.3812 3.05684L23.8577 3.06412L23.0912 1.74937L16.446 0L9.94785 1.77243L9.82272 1.80278L9.06587 3.12725L7.54247 3.13454L2.95403 7.75622L2.70377 8.00872L0.960475 14.6214L0.953186 14.6481L1.72096 15.9628L0.966547 17.2836L2.67704 23.5649L2.77058 23.9072L7.65181 28.7425L9.17157 28.7353L9.93813 30.05L16.2407 31.7071L16.5821 31.8006L23.0827 30.027L23.2078 29.9966L23.9671 28.6721L25.4881 28.6673L30.0644 24.0541L30.3256 23.7955L32.0701 17.1805L32.0774 17.1537L31.3084 15.8366ZM23.2686 28.6733L22.8106 29.4758L17.2575 30.9897L18.5708 28.6903L23.2686 28.6733ZM14.5436 28.7098L14.5679 28.7085L15.9018 30.9957L10.3317 29.5292L9.86646 28.7304L14.5436 28.7098ZM1.59705 14.5558L3.06579 8.99206L4.39968 11.278L2.06598 15.3595L1.59705 14.5558ZM4.43613 20.6161L3.1241 22.9105L1.61284 17.3626L2.07084 16.5613L4.43613 20.6161ZM9.76077 3.1224L10.2188 2.32116L15.7742 0.806091L14.4598 3.10297L9.76077 3.1224ZM18.4845 3.08719H18.4627L17.1288 0.800022L22.6951 2.26532L23.1629 3.06655L18.4845 3.08719ZM28.5908 11.1773L29.9052 8.88038L31.4189 14.4332L30.9585 15.2369L28.5908 11.1773ZM28.0647 20.7411L29.5991 23.3718L26.551 23.384L25.9874 21.3092L28.0647 20.7411ZM20.5522 24.0128L18.3983 27.775L16.9842 26.3728L19.324 24.0177L20.5522 24.0128ZM13.7746 24.0432L16.1326 26.3777L14.7282 27.7896L12.5464 24.0492L13.7746 24.0432ZM7.08934 21.3882L6.53901 23.4702L3.49098 23.4835L5.00467 20.8394L7.08934 21.3882ZM4.96458 11.051L3.43024 8.42027L6.47705 8.4057L7.04317 10.4828L4.96458 11.051ZM12.4771 7.77928L14.6311 4.01711L16.0451 5.41927L13.7053 7.77564L12.4771 7.77928ZM19.2523 7.75135L16.8967 5.41563L18.2999 4.00133L20.4829 7.74529L19.2523 7.75135ZM25.9412 10.4064L26.4879 8.32315L29.5347 8.31101L28.0222 10.9539L25.9412 10.4064ZM25.9133 15.8584L28.247 11.7818L30.6159 15.8414L28.281 19.9156L25.9133 15.8584ZM21.5933 23.4058L22.2031 22.3399L25.4079 21.4659L25.9315 23.3864L21.5933 23.4058ZM7.67003 21.5423L10.8821 22.3897L11.5016 23.4507L7.16222 23.4677L7.67003 21.5423ZM11.436 8.38628L10.8262 9.45216L7.62265 10.3262L7.10027 8.40448L11.436 8.38628ZM25.3605 10.2534L22.1509 9.40846L21.5301 8.34378L25.8683 8.32436L25.3605 10.2534ZM8.08793 17.6005L7.24241 20.8091L5.31081 20.3004L7.46593 16.5334L8.08793 17.6005ZM8.72572 17.5362L8.73301 17.5094L7.81216 15.9313L8.71722 14.3458L7.78058 10.9053L11.0995 10.0009L11.2246 9.97054L12.1321 8.38263L13.958 8.37656L16.4703 5.84417L18.9729 8.32315L19.0045 8.35471L20.834 8.34743L21.7549 9.92562L25.2062 10.8361L24.306 14.2596L24.2987 14.2863L25.2184 15.8621L24.3109 17.4487L25.25 20.888L21.9298 21.7924L21.8059 21.8228L20.8984 23.4107L19.0725 23.4167L16.5578 25.9516L14.0236 23.441L12.1977 23.4471L11.2781 21.8713L7.82553 20.962L8.72572 17.5362ZM24.9438 14.1977L25.7881 10.9879L27.7124 11.4965L25.561 15.2575L24.9438 14.1977ZM5.27922 11.59L7.19988 11.0644L8.07092 14.2644L7.46108 15.3303L5.27922 11.59ZM27.7513 20.2045L25.8294 20.7277L24.956 17.5289L25.567 16.4606L27.7513 20.2045ZM7.11606 15.9349L4.78236 20.0151L2.41585 15.958L4.74956 11.8765L7.11606 15.9349ZM21.179 7.74286L18.8125 3.68569L23.5127 3.66748L25.8792 7.72465L21.179 7.74286ZM14.9408 3.47567L16.4521 0.835229L17.9864 3.46474L16.4691 4.99195L14.9408 3.47567ZM7.08205 7.80235L9.41575 3.72697L14.1147 3.70633L11.781 7.78292L7.08205 7.80235ZM11.8503 24.0492L14.218 28.1076L9.51537 28.1283L7.14886 24.0711L11.8503 24.0492ZM18.0909 28.3152L16.5772 30.9581L15.0441 28.3298L16.5602 26.8002L18.0909 28.3152ZM25.9473 23.9898L23.6148 28.0676L18.9146 28.0858L21.2483 24.0092L25.9473 23.9898ZM31.4298 17.2387L29.9623 22.8L28.6296 20.5153L30.9633 16.4387L31.4298 17.2387ZM26.5741 7.7198L24.2088 3.66505L25.1358 3.66019L29.2225 7.70887L26.5741 7.7198ZM3.73881 7.81692L7.79273 3.73425L8.71722 3.73061L6.38594 7.80599L3.73881 7.81692ZM6.45276 24.0747L8.82048 28.1343L7.8972 28.138L3.80927 24.0869L6.45276 24.0747ZM29.2905 23.9764L25.2342 28.0627L24.3097 28.0663L26.6276 24.0116L26.6422 23.9885L29.2905 23.9764ZM21.7403 16.3015L21.7379 15.7989L21.3042 16.0539C21.0029 16.2299 20.7453 16.3707 20.4926 16.5091C20.3724 16.5747 20.2509 16.6402 20.1221 16.7131L20.0942 16.7313C20.0796 16.741 20.0177 16.7798 19.952 16.8199C17.6997 18.1905 16.474 19.4276 16.3075 20.4959C14.7853 20.4995 13.4223 20.5056 12.1443 20.5141H11.9025C11.905 20.4849 11.9074 20.457 11.9098 20.4279C11.9888 19.6667 12.3338 18.959 12.8841 18.4333C13.0676 18.2585 13.2692 18.1092 13.5 17.9768C13.7029 17.8615 13.9046 17.7437 14.1062 17.626L15.2676 16.9583C15.9346 16.5686 16.593 16.1898 17.2308 15.8244L17.2442 15.8171C18.1249 15.3121 19.0348 14.7889 19.98 14.2268C20.7138 13.7679 21.2568 13.0638 21.5483 12.1922C21.7148 11.7442 21.7196 11.0037 21.7196 10.9964V10.7062H21.4293C19.8767 10.7074 18.329 10.7074 16.7801 10.7074C16.8408 9.31984 16.8141 6.68304 16.7995 5.60259L16.7983 5.53096H16.2176L16.2188 5.60987C16.2419 7.33374 16.2492 9.56385 16.2006 10.7062H11.3303L11.3267 10.9927C11.3109 12.401 11.3109 15.3667 11.3109 15.493V15.9992L13.0967 14.9516C13.2571 14.8581 13.4174 14.7646 13.579 14.6723C13.8985 14.489 14.2302 14.2984 14.5509 14.0981C15.1534 13.723 15.643 13.3115 16.0038 12.8744C16.3525 12.4519 16.5894 11.9906 16.7084 11.5026C16.7206 11.4516 16.7315 11.38 16.7424 11.2853C18.2039 11.2853 19.6629 11.2853 21.1268 11.2841C21.1122 11.4832 21.0782 11.794 21.0005 12.0016C20.7514 12.7469 20.2934 13.3454 19.6763 13.7315C18.7299 14.2936 17.8212 14.8156 16.9429 15.3194L16.9271 15.3279C16.293 15.6921 15.6369 16.0684 14.9773 16.4545L13.8147 17.1234C13.6142 17.2399 13.4138 17.3565 13.2121 17.4718C12.9436 17.6248 12.6982 17.8069 12.4832 18.012C11.8333 18.6324 11.4251 19.4676 11.3328 20.366C11.3182 20.508 11.3109 20.6549 11.3109 20.8006V21.0907H12.1467C13.4162 21.0822 14.7708 21.0762 16.2869 21.0725C16.2784 22.6313 16.2662 24.7412 16.2322 26.2417L16.231 26.2963L16.8105 26.3097L16.8117 26.2551C16.8457 24.7412 16.8579 22.5475 16.8664 21.0725C18.3752 21.0701 19.8925 21.0701 21.4512 21.0701H21.7415V20.7799C21.7415 20.23 21.7427 19.7031 21.7439 19.1775V19.1229C21.7439 18.2342 21.7464 17.3128 21.7403 16.3015ZM21.162 19.1471V19.1775C21.1608 19.6097 21.1608 20.0443 21.1596 20.491C19.7127 20.491 18.2999 20.491 16.8955 20.4934C17.0364 19.8755 17.7483 18.8363 20.2509 17.3128C20.3444 17.2557 20.3894 17.2278 20.4173 17.2096C20.5364 17.144 20.6506 17.0809 20.7672 17.0178C20.8948 16.9486 21.0235 16.8782 21.1608 16.8017C21.1657 17.6284 21.1632 18.3981 21.162 19.1471ZM11.8892 14.9868C11.8892 14.3045 11.8916 12.4519 11.9025 11.2865H16.1581C16.1532 11.3193 16.1484 11.3472 16.1435 11.3666C16.0451 11.7685 15.8471 12.1521 15.5555 12.5066C15.2348 12.8951 14.7938 13.2653 14.2435 13.6077C13.9289 13.8031 13.6033 13.9901 13.2874 14.171C13.1247 14.2644 12.9631 14.3579 12.8015 14.4526L11.8892 14.9868Z" fill="url(#paint0_linear_857_20257)"/>
<path d="M26.3524 8.84275C26.8019 8.84275 27.1675 8.47733 27.1675 8.02816C27.1675 7.57898 26.8019 7.21356 26.3524 7.21356C25.9029 7.21356 25.5372 7.57898 25.5372 8.02816C25.5372 8.47733 25.9029 8.84275 26.3524 8.84275Z" fill="#172D7F"/>
<path d="M25.6063 16.6949C26.0565 16.6949 26.4215 16.3302 26.4215 15.8803C26.4215 15.4304 26.0565 15.0657 25.6063 15.0657C25.1561 15.0657 24.7911 15.4304 24.7911 15.8803C24.7911 16.3302 25.1561 16.6949 25.6063 16.6949Z" fill="#172D7F"/>
<path d="M7.36606 15.0657C6.91657 15.0657 6.5509 15.4311 6.5509 15.8803C6.5509 16.3294 6.91657 16.6949 7.36606 16.6949C7.81555 16.6949 8.18121 16.3294 8.18121 15.8803C8.18121 15.4311 7.81555 15.0657 7.36606 15.0657Z" fill="#172D7F"/>
<path d="M6.84066 8.84275C7.29015 8.84275 7.65582 8.47733 7.65582 8.02816C7.65582 7.57898 7.29015 7.21356 6.84066 7.21356C6.39117 7.21356 6.02551 7.57898 6.02551 8.02816C6.02551 8.47733 6.39117 8.84275 6.84066 8.84275Z" fill="#172D7F"/>
<path d="M16.5145 6.189C16.9647 6.189 17.3297 5.82429 17.3297 5.3744C17.3297 4.92452 16.9647 4.55981 16.5145 4.55981C16.0643 4.55981 15.6993 4.92452 15.6993 5.3744C15.6993 5.82429 16.0643 6.189 16.5145 6.189Z" fill="#172D7F"/>
<path d="M16.5145 25.6117C16.065 25.6117 15.6993 25.9771 15.6993 26.4263C15.6993 26.8755 16.065 27.2409 16.5145 27.2409C16.964 27.2409 17.3297 26.8755 17.3297 26.4263C17.3297 25.9771 16.964 25.6117 16.5145 25.6117Z" fill="#172D7F"/>
<path d="M6.84066 22.9276C6.39117 22.9276 6.02551 23.293 6.02551 23.7421C6.02551 24.1913 6.39117 24.5567 6.84066 24.5567C7.29015 24.5567 7.65582 24.1913 7.65582 23.7421C7.65582 23.293 7.29015 22.9276 6.84066 22.9276Z" fill="#172D7F"/>
<path d="M26.3524 22.9276C25.9029 22.9276 25.5372 23.293 25.5372 23.7421C25.5372 24.1913 25.9029 24.5567 26.3524 24.5567C26.8019 24.5567 27.1675 24.1913 27.1675 23.7421C27.1675 23.293 26.8019 22.9276 26.3524 22.9276Z" fill="#172D7F"/>
<path d="M26.3533 8.4943C26.611 8.4943 26.8198 8.28559 26.8198 8.02813C26.8198 7.77067 26.611 7.56195 26.3533 7.56195C26.0957 7.56195 25.8868 7.77067 25.8868 8.02813C25.8868 8.28559 26.0957 8.4943 26.3533 8.4943Z" fill="white"/>
<path d="M25.6053 16.3465C25.8629 16.3465 26.0718 16.1378 26.0718 15.8803C26.0718 15.6228 25.8629 15.4141 25.6053 15.4141C25.3477 15.4141 25.1388 15.6228 25.1388 15.8803C25.1388 16.1378 25.3477 16.3465 25.6053 16.3465Z" fill="white"/>
<path d="M7.36518 16.3465C7.62282 16.3465 7.83168 16.1378 7.83168 15.8803C7.83168 15.6228 7.62282 15.4141 7.36518 15.4141C7.10754 15.4141 6.89868 15.6228 6.89868 15.8803C6.89868 16.1378 7.10754 16.3465 7.36518 16.3465Z" fill="white"/>
<path d="M6.84149 8.49433C7.09913 8.49433 7.308 8.28562 7.308 8.02816C7.308 7.7707 7.09913 7.56198 6.84149 7.56198C6.58385 7.56198 6.375 7.7707 6.375 8.02816C6.375 8.28562 6.58385 8.49433 6.84149 8.49433Z" fill="white"/>
<path d="M16.5135 5.84049C16.7711 5.84049 16.98 5.63178 16.98 5.37432C16.98 5.11685 16.7711 4.90814 16.5135 4.90814C16.2559 4.90814 16.047 5.11685 16.047 5.37432C16.047 5.63178 16.2559 5.84049 16.5135 5.84049Z" fill="white"/>
<path d="M16.5135 26.8924C16.7711 26.8924 16.98 26.6837 16.98 26.4263C16.98 26.1688 16.7711 25.9601 16.5135 25.9601C16.2559 25.9601 16.047 26.1688 16.047 26.4263C16.047 26.6837 16.2559 26.8924 16.5135 26.8924Z" fill="white"/>
<path d="M6.84149 24.2095C6.58395 24.2095 6.375 24.0007 6.375 23.7433C6.375 23.486 6.58395 23.2772 6.84149 23.2772C7.09904 23.2772 7.308 23.486 7.308 23.7433C7.30921 23.9995 7.09904 24.2095 6.84149 24.2095Z" fill="white"/>
<path d="M26.3533 24.2095C26.0958 24.2095 25.8868 24.0007 25.8868 23.7433C25.8868 23.486 26.0958 23.2772 26.3533 23.2772C26.6109 23.2772 26.8198 23.486 26.8198 23.7433C26.8198 23.9995 26.6109 24.2095 26.3533 24.2095Z" fill="white"/>
<defs>
<linearGradient id="paint0_linear_857_20257" x1="5.63521" y1="26.7696" x2="27.3769" y2="5.01285" gradientUnits="userSpaceOnUse">
<stop offset="0.3017" stop-color="#172D7F"/>
<stop offset="0.4139" stop-color="#1B3283"/>
<stop offset="0.5419" stop-color="#273F8E"/>
<stop offset="0.6775" stop-color="#3A56A1"/>
<stop offset="0.8176" stop-color="#5576BA"/>
<stop offset="0.8669" stop-color="#6083C5"/>
</linearGradient>
</defs>
</svg>
